<svg version="1.1" x="0px" y="0px" viewBox="0 0 566.92827 561.22594" xml:space="preserve" width="32px" height="32px" xmlns="http://www.w3.org/2000/svg" style="fill:var(--nextui-colors-foreground)"><g transform="translate(-142.05924,-145.261)"><path d="m 142.13,415.73 c 0,-41.18 0.11,-82.37 -0.07,-123.55 -0.05,-10.36 2.38,-19.97 6.88,-29.09 8.25,-16.73 21.06,-28.79 38.59,-35.29 30.05,-11.15 60.24,-21.94 90.36,-32.9 38.74,-14.1 77.46,-28.24 116.21,-42.3 5.64,-2.05 11.31,-4.13 17.12,-5.57 12.22,-3.02 24.32,-2.1 36.16,2.2 15.1,5.49 30.21,10.95 45.31,16.44 56.14,20.39 112.26,40.81 168.42,61.14 18.44,6.68 32.14,18.65 40.94,36.13 3.6,7.15 5.91,14.76 6.79,22.75 0.11,0.97 0.14,1.94 0.14,2.92 0.01,84.56 0.01,169.12 0,253.69 0,5.23 -0.87,10.36 -2.42,15.34 -6.34,20.34 -18.67,35.76 -38.12,44.81 -25.9,12.06 -51.99,23.72 -78,35.54 -43.6,19.82 -87.2,39.63 -130.79,59.46 -6.95,3.16 -13.98,6.05 -21.5,7.67 -8.65,1.87 -17.19,1.81 -25.82,-0.11 -6.95,-1.54 -13.47,-4.18 -19.9,-7.1 -45.37,-20.62 -90.75,-41.24 -136.12,-61.85 -23.5,-10.68 -46.97,-21.42 -70.51,-32 -11.09,-4.98 -20.74,-11.78 -28.29,-21.36 -8.16,-10.35 -13.36,-22.02 -15.11,-35.14 -0.24,-1.84 -0.25,-3.73 -0.25,-5.59 -0.02,-42.08 -0.02,-84.16 -0.02,-126.24 z m 258.91,233.52 v -3.94 c -0.0334,-96.6645 -0.0237,-186.60426 -0.01,-270.97 0,-2.81 -0.02,-2.83 -2.75,-3.78 -4.6,-1.6 -9.23,-3.1 -13.8,-4.76 -40.96,-14.87 -81.91,-29.77 -122.86,-44.65 -23.26,-8.45 -46.53,-16.89 -69.8,-25.32 -0.8,-0.29 -1.62,-0.51 -2.77,-0.86 v 5.02 224.67 c 0,4.3 -0.08,8.61 0.02,12.91 0.25,10.71 5.2,18.35 15.07,22.71 0.96,0.43 1.94,0.84 2.9,1.27 47.58,21.63 95.16,43.27 142.75,64.88 15.74,7.15 31.51,14.23 47.27,21.32 1.15,0.52 2.38,0.9 3.98,1.5 z m 260.9,-354.34 c -1.23,0.41 -2.06,0.68 -2.88,0.97 -15.57,5.64 -31.13,11.28 -46.7,16.91 -53.26,19.27 -106.52,38.55 -159.78,57.82 -2.44,0.88 -2.53,0.96 -2.53,3.71 0.0426,97.19249 0,178.26813 0,271.7 0,0.94 0.05,1.88 0.09,3.12 1.18,-0.4 2.03,-0.62 2.83,-0.97 4.38,-1.93 8.76,-3.86 13.12,-5.84 42.43,-19.24 84.86,-38.49 127.28,-57.74 18.03,-8.19 36.07,-16.36 54.08,-24.61 9.21,-4.22 14.11,-11.43 14.41,-21.6 0.14,-4.62 0.07,-9.25 0.07,-13.88 V 299.82 c 0.01,-1.51 0.01,-3.03 0.01,-4.91 z"></path></g></svg>
